<svg xmlns="http://www.w3.org/2000/svg" viewBox="0 0 512 512">
  <rect width="512" height="512" rx="96" fill="#2c1e12"/>
  <rect x="118" y="86" width="276" height="340" rx="28" fill="#f3e7cf" stroke="#b8985a" stroke-width="10"/>
  <rect x="140" y="108" width="232" height="296" rx="18" fill="none" stroke="#b8985a" stroke-width="5"/>
  <g fill="#7a5a2e">
    <path d="M196 168 h120 a8 8 0 0 1 8 8 v18 c0 46-40 56-40 78 s40 32 40 78 v18 a8 8 0 0 1-8 8 H196 a8 8 0 0 1-8-8 v-18 c0-46 40-32 40-78 s-40-32-40-78 v-18 a8 8 0 0 1 8-8 Z"/>
  </g>
  <path d="M232 300 h48 c6 0 10 6 6 11 l-24 34 c-3 4-9 4-12 0 l-24-34 c-4-5 0-11 6-11 Z" fill="#c0532b"/>
  <circle cx="256" cy="196" r="10" fill="#c0532b"/>
</svg>
